# xmcd
#
# Track frame offsets:
#	150
#	12447
#	30680
#	42142
#	70962
#	89755
#	113642
#	138457
#	159097
#	192595
#	225327
#	244807
#	260015
#	280205
#	308670
#	327547
#
# Disc length: 4663
#
# Revision: 1
# Processed by: cddbd v1.5.1PL0 Copyright (c) Steve Scherf et al.
# Submitted via: CDex 1.51
# Normalized: r0:DSETVAR1
#
DISCID=df123510
DTITLE=Various Artist - HMV Greatest Jazz Collection CD4
DYEAR=2001
DGENRE=Jazz
TTITLE0=kenny burrell - soul lament
TTITLE1=grant green - sunday mornin'
TTITLE2=wes montgomery - fingerpckin'
TTITLE3=sonny rollins - you stepped out of a dream
TTITLE4=art pepper - long ago and far away
TTITLE5=connonball adderley and miles davis - work song
TTITLE6=herbie hancock - watermelon man
TTITLE7=jimmy mcgriff - i've got a woman
TTITLE8=lee morgan - suicide city
TTITLE9=art blakey - whisper not
TTITLE10=jimmy smith - since i fell for you
TTITLE11=dexter gordon - smile
TTITLE12=mccoy tyner - i've grown accustomed to her face
TTITLE13=lou donaldson - minor bash
TTITLE14=gil evans - angel
TTITLE15=earl klugh - magic in your eyes
EXTD=YEAR: 2001
EXTT0=
EXTT1=
EXTT2=
EXTT3=
EXTT4=
EXTT5=
EXTT6=
EXTT7=
EXTT8=
EXTT9=
EXTT10=
EXTT11=
EXTT12=
EXTT13=
EXTT14=
EXTT15=
PLAYORDER=
